<?xml version="1.0" standalone="no"?><!DOCTYPE svg PUBLIC "-//W3C//DTD SVG 1.1//EN" "http://www.w3.org/Graphics/SVG/1.1/DTD/svg11.dtd"><svg t="1512461292910" class="icon" style="" viewBox="0 0 1259 1024" version="1.1" xmlns="http://www.w3.org/2000/svg" p-id="7574" xmlns:xlink="http://www.w3.org/1999/xlink" width="245.8984375" height="200"><defs><style type="text/css"></style></defs><path d="M1172.385509 1024H87.491456A87.491456 87.491456 0 0 1 0 936.508544V87.491456A87.491456 87.491456 0 0 1 87.491456 0h1084.894053A87.491456 87.491456 0 0 1 1259.876965 87.491456v849.017088a87.491456 87.491456 0 0 1-87.491456 87.491456zM87.491456 34.996582a52.494874 52.494874 0 0 0-52.494874 52.494874v849.017088a52.494874 52.494874 0 0 0 52.494874 52.494874h1084.894053a52.494874 52.494874 0 0 0 52.494874-52.494874V87.491456a52.494874 52.494874 0 0 0-52.494874-52.494874z" fill="#e25d55" p-id="7575"></path><path d="M257.574846 529.148325l504.650718-174.28298 19.598086 62.293917 172.883117-198.080656-261.074505-35.696514 29.39713 79.092276-473.153794 244.976076 7.699248 21.697881zM1043.598086 909.911141a17.498291 17.498291 0 0 1-17.498291-17.498291V412.25974a17.498291 17.498291 0 0 1 34.996582 0v480.15311a17.498291 17.498291 0 0 1-17.498291 17.498291zM886.113465 909.911141a17.498291 17.498291 0 0 1-17.498291-17.498291V501.850991a17.498291 17.498291 0 0 1 34.996583 0v390.561859a17.498291 17.498291 0 0 1-17.498292 17.498291zM728.628845 909.911141a17.498291 17.498291 0 0 1-17.498291-17.498291V652.336295a17.498291 17.498291 0 0 1 34.996582 0v240.076555a17.498291 17.498291 0 0 1-17.498291 17.498291zM571.144224 909.911141a17.498291 17.498291 0 0 1-17.498291-17.498291V567.644566a17.498291 17.498291 0 1 1 34.996582 0v324.768284a17.498291 17.498291 0 0 1-17.498291 17.498291zM413.659604 909.911141a17.498291 17.498291 0 0 1-17.498292-17.498291v-209.979494a17.498291 17.498291 0 0 1 34.996583 0v209.979494a17.498291 17.498291 0 0 1-17.498291 17.498291zM256.174983 909.911141a17.498291 17.498291 0 0 1-17.498291-17.498291v-127.38756a17.498291 17.498291 0 0 1 34.996582 0v127.38756a17.498291 17.498291 0 0 1-17.498291 17.498291z" fill="#e25d55" p-id="7576"></path></svg>