<?xml version="1.0" standalone="no"?><!DOCTYPE svg PUBLIC "-//W3C//DTD SVG 1.1//EN" "http://www.w3.org/Graphics/SVG/1.1/DTD/svg11.dtd"><svg t="1512461276974" class="icon" style="" viewBox="0 0 1024 1024" version="1.1" xmlns="http://www.w3.org/2000/svg" p-id="6040" xmlns:xlink="http://www.w3.org/1999/xlink" width="200" height="200"><defs><style type="text/css"></style></defs><path d="M721.331098 253.56095l49.339732-49.348941 49.339732 49.348941 63.400982 63.411215L883.411543 204.213032l69.774133 0 0 182.533266 69.764923 69.764923-49.338708 49.311079L770.670829 302.910914 567.731814 505.821277 1.048377 505.821277l150.809751-150.780075L619.871311 355.041202 721.331098 253.56095 721.331098 253.56095zM903.846968 610.502431l0-69.775156L637.496737 540.727275l0 69.775156L903.846968 610.502431 903.846968 610.502431zM70.813301 610.502431l0-69.775156 496.918513 0 0 69.775156L70.813301 610.502431 70.813301 610.502431zM70.813301 645.370567l0 69.775156 496.918513 0 0-69.775156L70.813301 645.370567 70.813301 645.370567zM35.935955 819.785945l0-69.774133 937.674912 0 0 69.774133L35.935955 819.785945 35.935955 819.785945z" p-id="6041" fill="#e25d55"></path></svg>