<?xml version="1.0" standalone="no"?><!DOCTYPE svg PUBLIC "-//W3C//DTD SVG 1.1//EN" "http://www.w3.org/Graphics/SVG/1.1/DTD/svg11.dtd"><svg t="1512461243208" class="icon" style="" viewBox="0 0 1024 1024" version="1.1" xmlns="http://www.w3.org/2000/svg" p-id="3601" xmlns:xlink="http://www.w3.org/1999/xlink" width="200" height="200"><defs><style type="text/css"></style></defs><path d="M0 0h1024v1024H0z" fill="#E1E1E6" p-id="3602"></path><path d="M95.418182 414.254545c-4.654545 2.327273-6.981818 6.981818-6.981818 13.963637v167.563636c0 9.309091 6.981818 16.290909 16.290909 16.290909h167.563636c4.654545 0 9.309091-2.327273 13.963636-6.981818 2.327273-2.327273 2.327273-6.981818 2.327273-9.309091v-167.563636c0-9.309091-6.981818-16.290909-16.290909-16.290909H104.727273c-2.327273-2.327273-4.654545 0-9.309091 2.327272z" fill="#64A5DA" p-id="3603"></path><path d="M595.781818 409.6c9.309091 0 16.290909 6.981818 16.290909 16.290909v167.563636c0 9.309091-6.981818 16.290909-16.290909 16.29091h-167.563636c-9.309091 0-16.290909-6.981818-16.290909-16.29091v-167.563636c0-9.309091 6.981818-16.290909 16.290909-16.290909h167.563636z" fill="#BD5858" p-id="3604"></path><path d="M919.272727 409.6c9.309091 0 16.290909 6.981818 16.290909 16.290909v167.563636c0 9.309091-6.981818 16.290909-16.290909 16.29091h-167.563636c-9.309091 0-16.290909-6.981818-16.290909-16.29091v-167.563636c0-9.309091 6.981818-16.290909 16.290909-16.290909h167.563636z" fill="#E0A45C" p-id="3605"></path><path d="M95.418182 102.4c-2.327273 2.327273-6.981818 6.981818-6.981818 13.963636v167.563637c0 9.309091 6.981818 16.290909 16.290909 16.290909h167.563636c4.654545 0 9.309091-2.327273 13.963636-6.981818 2.327273-2.327273 2.327273-6.981818 2.327273-9.309091V116.363636c0-9.309091-6.981818-16.290909-16.290909-16.290909H104.727273c-2.327273-2.327273-4.654545 0-9.309091 2.327273z" fill="#93CFEF" p-id="3606"></path><path d="M595.781818 97.745455c9.309091 0 16.290909 6.981818 16.290909 16.290909v167.563636c0 9.309091-6.981818 16.290909-16.290909 16.290909h-167.563636c-9.309091 0-16.290909-6.981818-16.290909-16.290909V116.363636c0-9.309091 6.981818-16.290909 16.290909-16.290909h167.563636z" fill="#D87070" p-id="3607"></path><path d="M919.272727 97.745455c9.309091 0 16.290909 6.981818 16.290909 16.290909v167.563636c0 9.309091-6.981818 16.290909-16.290909 16.290909h-167.563636c-9.309091 0-16.290909-6.981818-16.290909-16.290909V116.363636c0-9.309091 6.981818-16.290909 16.290909-16.290909h167.563636z" fill="#FABD6B" p-id="3608"></path><path d="M935.563636 809.890909c0-34.909091-27.927273-65.163636-65.163636-65.163636H460.8c13.963636 18.618182 20.945455 41.890909 20.945455 65.163636 0 23.272727-6.981818 46.545455-20.945455 65.163636h409.6c34.909091 0 65.163636-27.927273 65.163636-65.163636" fill="#FFFFFF" p-id="3609"></path><path d="M460.8 747.054545h-179.2v130.327273h179.2c13.963636-18.618182 20.945455-41.890909 20.945455-65.163636 0-25.6-6.981818-46.545455-20.945455-65.163637" fill="#FABD6B" p-id="3610"></path><path d="M372.363636 809.890909c0-30.254545-11.636364-60.509091-32.581818-81.454545-20.945455-20.945455-51.2-32.581818-81.454545-32.581819-58.181818 0-137.309091 81.454545-153.6 97.745455l-13.963637 16.290909 13.963637 16.290909 9.309091 9.309091c27.927273 27.927273 95.418182 88.436364 144.290909 88.436364 30.254545 0 58.181818-11.636364 81.454545-32.581818 20.945455-20.945455 32.581818-48.872727 32.581818-81.454546" fill="#6B7082" p-id="3611"></path></svg>