<?xml version="1.0" standalone="no"?><!DOCTYPE svg PUBLIC "-//W3C//DTD SVG 1.1//EN" "http://www.w3.org/Graphics/SVG/1.1/DTD/svg11.dtd"><svg t="1512461542354" class="icon" style="" viewBox="0 0 1024 1024" version="1.1" xmlns="http://www.w3.org/2000/svg" p-id="10339" xmlns:xlink="http://www.w3.org/1999/xlink" width="200" height="200"><defs><style type="text/css"></style></defs><path d="M878.387243 855.700727l-16.711437-35.250801c-24.326593-57.648317-40.243279-118.533437-40.243279-180.914133V452.559881c0-177.337755-138.293826-321.621111-316.036182-321.62111-177.73513 0-316.043406 144.283356-316.043406 321.62111v186.968687c0 62.467396-15.042461 123.30194-39.325704 180.878008l-17.585663 35.207451a17.137713 17.137713 0 0 0 1.546151 16.407987c3.309052 4.956354 8.612206 7.680181 14.587286 7.68018h715.441699c5.989529 0 10.389558-2.731052 13.69861-7.68018 3.309052-4.978029 2.976702-10.859183 0.671925-16.321287z" fill="#F6C464" p-id="10340"></path><path d="M820.030876 641.76832c0 4.645678 0.758626 9.276907 1.510026 13.90091a338.101348 338.101348 0 0 0-1.510026-20.562365v6.661455zM822.834178 665.769788a105.196077 105.196077 0 0 0-1.293276-10.100558c0.151725 3.366852 0.3468 6.719255 0.4046 10.100558h0.888676zM504.009144 130.938771c-177.742355 0-316.043406 144.911931-316.043406 323.037212v187.792337c0 8.026981 1.755676 16.039512 1.228251 24.001468h0.932025c2.788852-175.625429 139.991703-317.611233 315.906132-317.611233 165.560996 0 296.774317 125.758442 313.99873 286.94831v-181.130882c0-178.12528-138.301051-323.037212-316.021732-323.037212z" fill="#F1CC83" p-id="10341"></path><path d="M878.510068 855.650152l-17.238862-35.337501c-24.333818-57.778367-40.228829-118.786312-40.22883-181.311508V451.620631c0-22.404741-1.177676-44.267607-5.382629-65.386298 1.777351-0.53465 4.089353-0.975376 5.852255-1.553376-25.179143-120.368588-116.64771-216.107133-233.902322-245.773005-0.079475 0.2312-0.021675 0.47685-0.10115 0.715275-25.634319-6.733705-52.034488-8.677231-80.016933-8.677231-18.279263 0-36.616327-0.036125-53.963565 2.911677a309.750427 309.750427 0 0 1 123.872716 50.199337 184.700035 184.700035 0 0 0-1.213801 20.316715c0 85.833063 55.24239 158.292641 132.419897 181.773908 4.212178 21.16204 5.469329 43.039357 5.469329 65.480223v187.380512c0 62.517971 15.902237 123.53314 40.236054 181.311508l16.718663 35.337501c2.304777 5.476554 2.622677 11.372158-0.686376 16.350187-3.301827 4.970804-7.709081 7.709081-13.68416 7.70908h106.958979c5.982304 0 10.671333-2.738277 13.95871-7.70908 3.309052-4.985254 3.236802-10.880858 0.932025-16.357412" fill="#EEBF6D" p-id="10342"></path><path d="M506.855796 1019.375997c-77.033006 0-139.478727-62.445721-139.478727-139.464278h278.935779c0 77.018556-62.445721 139.464277-139.457052 139.464278" fill="#F6C464" p-id="10343"></path><path d="M386.190983 948.816595h241.315177c11.892359-19.449714 18.806689-48.617061 18.806688-68.074H367.384294c0 19.456939 6.921555 48.624286 18.806689 68.074" fill="#E8AE4D" p-id="10344"></path><path d="M505.396345 1.575051c-24.066493 0-43.761857 18.149213-43.761857 40.53228v88.824215h87.516489V42.114556c0-22.390291-19.695364-40.539505-43.754632-40.539505" fill="#F8FAFC" p-id="10345"></path><path d="M899.079659 195.674818c0 69.808001-56.579016 126.387018-126.372568 126.387018-69.800776 0-126.394243-56.579016-126.394243-126.387018 0-69.808001 56.593466-126.387018 126.394243-126.387017 69.793551 0 126.372568 56.586241 126.372568 126.387017" fill="#D76669" p-id="10346"></path><path d="M878.502843 857.391378l-17.238862-34.289875c-24.333818-56.080491-40.236054-115.289409-40.236055-175.957779v-51.470938a311.332703 311.332703 0 0 0-108.931404-170.365624c1.372751 13.098935 1.965201 26.407394 1.965201 39.961504V647.143724c0 60.668369 15.902237 119.884513 40.236054 175.957779l16.718663 34.289875c2.297552 5.317604 2.622677 11.047033-0.686376 15.873337-3.301827 4.819079-7.709081 7.47788-13.68416 7.47788h106.958979c5.982304 0 10.671333-2.658802 13.95871-7.47788 3.316277-4.826304 3.244027-10.555733 0.93925-15.873337z" fill="#E8AE4D" p-id="10347"></path><path d="M878.025993 872.014789c3.309052-4.970804 3.301827-10.859183 1.018726-16.321287l-16.097312-35.250801a536.037593 536.037593 0 0 1-20.417865-57.424342H172.150201a592.472109 592.472109 0 0 1-20.84414 57.388217l-18.864489 35.214676a17.051012 17.051012 0 0 0 1.553376 16.393537c3.301827 4.963579 8.604981 7.687406 14.572836 7.687405h715.441699c5.989529 0.007225 10.714683-2.723827 14.01651-7.687405" fill="#F8FAFC" p-id="10348"></path></svg>