<?xml version="1.0" standalone="no"?><!DOCTYPE svg PUBLIC "-//W3C//DTD SVG 1.1//EN" "http://www.w3.org/Graphics/SVG/1.1/DTD/svg11.dtd"><svg t="1512461269306" class="icon" style="" viewBox="0 0 1890 1024" version="1.1" xmlns="http://www.w3.org/2000/svg" p-id="5220" xmlns:xlink="http://www.w3.org/1999/xlink" width="369.140625" height="200"><defs><style type="text/css"></style></defs><path d="M1713.230769 1024h-1536C78.769231 1024 0 945.230769 0 846.769231v-669.538462C0 78.769231 78.769231 0 177.230769 0h1536C1811.692308 0 1890.461538 78.769231 1890.461538 177.230769v669.538462c0 98.461538-78.769231 177.230769-177.230769 177.230769zM177.230769 39.384615C102.4 39.384615 39.384615 102.4 39.384615 177.230769v669.538462C39.384615 921.6 102.4 984.615385 177.230769 984.615385h1536c74.830769 0 137.846154-63.015385 137.846154-137.846154v-669.538462C1851.076923 102.4 1788.061538 39.384615 1713.230769 39.384615h-1536z" fill="#AD0E11" p-id="5221"></path><path d="M618.338462 185.107692c23.630769 35.446154 47.261538 70.892308 70.892307 114.215385l-43.323077 19.692308c-23.630769-43.323077-47.261538-78.769231-70.892307-114.215385l43.323077-19.692308z m173.292307 185.107693h-118.153846V539.569231h122.092308V370.215385z m0 216.615384h-126.030769c-3.938462 51.2-15.753846 94.523077-31.507692 133.907693-23.630769 51.2-59.076923 90.584615-110.276923 122.092307l-27.569231-43.323077c47.261538-27.569231 78.769231-66.953846 98.461538-110.276923 11.815385-27.569231 15.753846-59.076923 23.63077-98.461538h-90.584616v-47.261539h94.523077V370.215385h-82.707692V322.953846h232.369231c23.630769-43.323077 43.323077-90.584615 63.015384-141.784615l47.261539 15.753846c-15.753846 47.261538-35.446154 86.646154-59.076923 126.030769h98.461538v47.261539h-82.707692v169.353846h94.523077v47.261538h-94.523077v252.061539H787.692308v-252.061539z m-283.569231-118.153846v51.2c-23.630769 11.815385-47.261538 27.569231-70.892307 39.384615v212.676924c0 39.384615-19.692308 59.076923-63.015385 59.076923H315.076923l-11.815385-51.2c19.692308 3.938462 35.446154 7.876923 51.2 7.876923 19.692308 0 27.569231-7.876923 27.569231-27.569231v-177.230769c-27.569231 11.815385-59.076923 23.630769-86.646154 31.507692l-11.815384-51.2c35.446154-7.876923 66.953846-19.692308 98.461538-31.507692V366.276923H295.384615V319.015385h90.584616V189.046154h51.2v129.969231h70.892307v47.261538h-70.892307v141.784615c23.630769-11.815385 47.261538-23.630769 70.892307-39.384615z m626.215385-78.769231h236.307692V303.261538H1417.846154v86.646154h86.646154v47.261539H1417.846154v216.615384c0 43.323077-19.692308 63.015385-59.076923 63.015385h-82.707693l-11.815384-47.261538c27.569231 3.938462 51.2 3.938462 74.830769 3.938461 19.692308 0 27.569231-11.815385 27.569231-31.507692v-196.923077c-55.138462 94.523077-129.969231 169.353846-224.492308 224.492308l-27.569231-47.261539c90.584615-47.261538 157.538462-106.338462 208.738462-185.107692h-196.923077V389.907692z m472.615385-169.353846v618.338462h-51.2v-31.507693h-472.615385v31.507693h-51.2V220.553846h575.015385zM1083.076923 760.123077h476.553846V267.815385H1083.076923v492.307692z" fill="#AD0E11" p-id="5222"></path></svg>