<?xml version="1.0" standalone="no"?><!DOCTYPE svg PUBLIC "-//W3C//DTD SVG 1.1//EN" "http://www.w3.org/Graphics/SVG/1.1/DTD/svg11.dtd"><svg t="1512461613238" class="icon" style="" viewBox="0 0 1706 1024" version="1.1" xmlns="http://www.w3.org/2000/svg" p-id="12857" xmlns:xlink="http://www.w3.org/1999/xlink" width="333.203125" height="200"><defs><style type="text/css"></style></defs><path d="M113.493333 0h1478.826667C1655.466667 0 1706.666667 51.2 1706.666667 113.493333v796.16c0 62.293333-51.2 113.493333-113.493334 113.493334H113.493333C51.2 1024 0 972.8 0 910.506667V113.493333C0 51.2 51.2 0 113.493333 0z" fill="#F5A623" p-id="12858"></path><path d="M541.013333 550.4v-204.8H176.64v47.786667h314.026667v109.226666H246.613333v-63.146666h-49.493333v247.466666c0 42.666667 20.48 64.853333 61.44 64.853334h265.386667c18.773333-0.853333 34.986667-6.826667 46.08-17.066667 9.386667-10.24 17.92-46.08 23.893333-107.52l-48.64-15.36c-2.56 48.64-6.826667 76.8-13.653333 83.626667-6.826667 5.973333-13.653333 8.533333-21.333334 8.533333H272.213333c-17.066667 0-25.6-8.533333-25.6-25.6v-128h294.4zM804.693333 324.266667v377.173333H639.146667v48.64h429.226666v-48.64h-212.48V514.56H1032.533333v-48.64h-176.64V324.266667h-51.2z m471.893334 16.213333h247.466666v193.706667h-100.693333v33.28H1544.533333v46.08h-81.92c20.48 35.84 52.053333 68.266667 94.72 97.28l-32.426666 39.253333c-47.786667-41.813333-81.066667-87.04-101.546667-137.386667h-0.853333v152.746667h-46.08V613.546667h-0.853334c-22.186667 55.466667-58.026667 100.693333-108.373333 137.386666l-25.6-41.813333c41.813333-25.6 74.24-57.173333 94.72-94.72h-80.213333v-46.08h118.613333v-33.28h-99.84V340.48z m201.386666 151.893333v-34.133333h-55.466666v34.133333h55.466666z m-101.546666 0v-34.133333h-54.613334v34.133333h54.613334z m-54.613334-74.24h54.613334v-34.986666h-54.613334V418.133333z m101.546667-34.986666V418.133333h55.466667v-34.986666h-55.466667zM1177.6 327.68c29.866667 23.04 56.32 46.08 76.8 69.12l-34.133333 34.133333c-17.92-22.186667-44.373333-45.226667-78.506667-69.973333l35.84-33.28z m-68.266667 137.386667h110.08v191.146666c10.24-9.386667 20.48-19.626667 31.573334-30.72l12.8 51.2c-27.306667 26.453333-56.32 50.346667-86.186667 71.68l-18.773333-44.373333c8.533333-6.826667 12.8-15.36 12.8-25.6V512.853333H1109.333333v-47.786666z" fill="#FFFFFF" p-id="12859"></path></svg>