<?xml version="1.0" standalone="no"?><!DOCTYPE svg PUBLIC "-//W3C//DTD SVG 1.1//EN" "http://www.w3.org/Graphics/SVG/1.1/DTD/svg11.dtd"><svg t="1512461767686" class="icon" style="" viewBox="0 0 1024 1024" version="1.1" xmlns="http://www.w3.org/2000/svg" p-id="18405" xmlns:xlink="http://www.w3.org/1999/xlink" width="200" height="200"><defs><style type="text/css"></style></defs><path d="M512.085333 512m-512 0a512 512 0 1 0 1024 0 512 512 0 1 0-1024 0Z" fill="#EDEDED" p-id="18406"></path><path d="M857.912889 399.104L525.198222 561.720889c-13.084444 5.603556-26.168889 5.603556-39.253333 0L153.230222 399.104a14.023111 14.023111 0 0 1 0-24.291556L485.944889 212.195556c13.084444-5.603556 26.168889-5.603556 39.253333 0l332.714667 162.616888c11.207111 5.632 11.207111 18.688 0 24.291556z" fill="#909EA7" p-id="18407"></path><path d="M528.952889 595.399111a51.512889 51.512889 0 0 1-46.762667 0l-171.975111-84.138667c-11.207111-5.603556-22.442667 1.877333-22.442667 13.084445v272.896H725.162667V526.222222c0-11.235556-11.235556-18.688-22.414223-13.084444l-173.795555 82.261333zM801.848889 406.584889h28.444444v192.512h-28.444444z" fill="#909EA7" p-id="18408"></path><path d="M868.181333 619.064889l-54.186666 54.186667-54.186667-54.186667 54.186667-54.186667z" fill="#909EA7" p-id="18409"></path><path d="M285.923556 797.269333a218.709333 48.583111 0 1 0 437.418666 0 218.709333 48.583111 0 1 0-437.418666 0Z" fill="#909EA7" p-id="18410"></path></svg>