<?xml version="1.0" standalone="no"?><!DOCTYPE svg PUBLIC "-//W3C//DTD SVG 1.1//EN" "http://www.w3.org/Graphics/SVG/1.1/DTD/svg11.dtd"><svg t="1512461661811" class="icon" style="" viewBox="0 0 1024 1024" version="1.1" xmlns="http://www.w3.org/2000/svg" p-id="15766" xmlns:xlink="http://www.w3.org/1999/xlink" width="200" height="200"><defs><style type="text/css"></style></defs><path d="M681.6 323.296c0-9.6-3.2-22.4-3.2-32-3.2-19.2-6.4-38.4-16-57.6-12.8-32-28.8-57.6-54.4-80-12.8-9.6-25.6-22.4-38.4-28.8-25.6-16-57.6-25.6-86.4-28.8-19.2 0-35.2 0-54.4 3.2-22.4 6.4-44.8 12.8-64 25.6-22.4 12.8-38.4 28.8-54.4 51.2-16 19.2-25.6 41.6-35.2 64-6.4 22.4-12.8 44.8-12.8 67.2 0 25.6 0 48 6.4 73.6 9.6 35.2 25.6 67.2 48 92.8 19.2 22.4 41.6 41.6 67.2 54.4 22.4 12.8 51.2 19.2 76.8 22.4 19.2 0 41.6 0 60.8-6.4 35.2-9.6 70.4-28.8 96-57.6 16-16 28.8-35.2 38.4-54.4 19.2-35.2 25.6-70.4 25.6-108.8zM492.8 32.096c3.2 0 9.6 3.2 12.8 3.2 25.6 3.2 51.2 9.6 76.8 22.4 44.8 22.4 83.2 54.4 112 99.2 19.2 32 35.2 67.2 41.6 105.6 3.2 12.8 3.2 25.6 3.2 35.2v22.4c0 32-3.2 67.2-16 99.2-9.6 28.8-25.6 57.6-41.6 83.2-3.2 3.2-3.2 6.4-6.4 6.4 54.4 38.4 99.2 89.6 131.2 147.2h-57.6s-3.2 0-3.2-3.2c-12.8-16-22.4-32-38.4-48-19.2-19.2-38.4-38.4-64-51.2-3.2-3.2-6.4-3.2-12.8 0-22.4 19.2-51.2 35.2-76.8 44.8-16 6.4-32 9.6-51.2 12.8-16 0-32 3.2-51.2 3.2-22.4 0-44.8-6.4-64-12.8-28.8-9.6-54.4-22.4-76.8-41.6-9.6-6.4-9.6-6.4-19.2 0-19.2 12.8-38.4 28.8-54.4 44.8-22.4 22.4-38.4 48-54.4 73.6-12.8 22.4-22.4 48-28.8 73.6-3.2 16-6.4 35.2-9.6 54.4-3.2 25.6-3.2 54.4-3.2 80 0 19.2 12.8 32 32 38.4H544c-9.6 19.2-12.8 41.6-6.4 64H163.2c-22.4 0-41.6-9.6-57.6-25.6-12.8-12.8-19.2-28.8-19.2-44.8v-73.6-3.2c0-9.6 0-22.4 3.2-32 3.2-22.4 6.4-48 16-70.4 9.6-28.8 19.2-57.6 32-83.2 19.2-35.2 44.8-70.4 73.6-99.2 9.6-9.6 22.4-19.2 35.2-32 6.4-6.4 12.8-9.6 19.2-12.8-3.2-6.4-9.6-9.6-12.8-16-12.8-19.2-25.6-41.6-32-67.2-19.2-51.2-22.4-105.6-12.8-156.8 3.2-22.4 9.6-44.8 16-67.2 9.6-22.4 22.4-44.8 35.2-64 25.6-35.2 60.8-64 99.2-83.2 22.4-12.8 48-19.2 76.8-22.4 3.2 0 9.6 0 12.8-3.2h44.8z" fill="#2282F8" p-id="15767"></path><path d="M758.56 760.768h-150.4c-16 0-25.6-9.6-28.8-25.6 0-9.6 9.6-25.6 19.2-28.8h313.6c12.8 0 25.6 12.8 25.6 28.8 0 12.8-12.8 28.8-25.6 28.8h-153.6z m0 172.8h153.6c12.8 0 22.4 9.6 25.6 25.6 0 9.6 0 16-6.4 22.4-6.4 6.4-12.8 9.6-22.4 9.6h-300.8c-16 0-25.6-9.6-28.8-28.8 0-9.6 9.6-25.6 16-28.8h163.2z m0-112h153.6c16 0 25.6 12.8 25.6 25.6 0 16-9.6 28.8-25.6 28.8H604.96c-16 0-25.6-12.8-25.6-28.8 0-12.8 9.6-25.6 25.6-28.8 51.2 3.2 102.4 3.2 153.6 3.2z" fill="#FA365C" p-id="15768"></path></svg>