<?xml version="1.0" standalone="no"?><!DOCTYPE svg PUBLIC "-//W3C//DTD SVG 1.1//EN" "http://www.w3.org/Graphics/SVG/1.1/DTD/svg11.dtd"><svg t="1512461580443" class="icon" style="" viewBox="0 0 1024 1024" version="1.1" xmlns="http://www.w3.org/2000/svg" p-id="11577" xmlns:xlink="http://www.w3.org/1999/xlink" width="200" height="200"><defs><style type="text/css"></style></defs><path d="M819.383 801.46v158.573l-156.727-96.486c-21.731 3.546-44.04 5.62-66.946 5.62-107.66 0-204.1-41.2-270.648-106.26 10.958 0.628 21.853 1.419 32.992 1.419 15.618 0 31.02-0.766 46.253-1.99 52.549 36.173 118.99 57.908 191.399 57.908 24.957 0 49.093-2.838 72.356-7.698l54.444 36.315c-0.058 0.024-0.107 0.053-0.165 0.078l41.12 27.22v-99.054c84.096-47.394 139.798-129.25 139.798-222.459 0-58.948-22.5-113.228-60.124-157.294 2.484-17.198 4.205-34.607 4.205-52.391 0-8.139-0.874-16.071-1.418-24.083 69.621 57.938 113.25 139.56 113.25 230.27 0.004 101.757-54.825 192.102-139.793 250.313h0.004zM427.955 701.422c-22.906 0-45.228-2.073-66.95-5.625l-156.722 96.488V633.74C119.316 575.503 64.49 485.159 64.49 383.397c0-175.634 162.73-318.018 363.466-318.018 200.738 0 363.466 142.385 363.466 318.018 0 175.64-162.728 318.024-363.466 318.024z m0-580.124c-169.857 0-307.547 118.93-307.547 265.598 0 93.198 55.697 175.04 139.793 222.464v99.053l41.12-27.22a1.744 1.744 0 0 1-0.174-0.083l54.469-36.315c23.248 4.865 47.385 7.7 72.34 7.7 169.858 0 307.549-118.902 307.549-265.6-0.001-146.667-137.692-265.597-307.55-265.597zM609.688 428.83c-23.15 0-41.939-18.77-41.939-41.934 0-23.156 18.79-41.94 41.94-41.94 23.156 0 41.94 18.783 41.94 41.94 0 23.164-18.784 41.934-41.94 41.934z m-167.754 0c-23.165 0-41.94-18.77-41.94-41.934 0-23.156 18.775-41.94 41.94-41.94 23.17 0 41.94 18.783 41.94 41.94 0 23.164-18.77 41.934-41.94 41.934z m-167.75 0c-23.172 0-41.94-18.77-41.94-41.934 0-23.156 18.77-41.94 41.94-41.94 23.165 0 41.934 18.783 41.934 41.94 0 23.164-18.768 41.934-41.934 41.934z m0 0" fill="#0EE1D4" p-id="11578"></path></svg>